<svg width="35" height="35" viewBox="0 0 35 35" fill="none" xmlns="http://www.w3.org/2000/svg">
<path fill-rule="evenodd" clip-rule="evenodd" d="M4.375 17.5C4.375 12.0316 4.375 9.29746 5.76758 7.38073C6.21733 6.76171 6.76171 6.21733 7.38073 5.76758C9.29746 4.375 12.0316 4.375 17.5 4.375C22.9684 4.375 25.7025 4.375 27.6193 5.76758C28.2383 6.21733 28.7827 6.76171 29.2324 7.38073C30.625 9.29746 30.625 12.0316 30.625 17.5C30.625 18.7235 30.625 19.8101 30.6094 20.7812L30.5071 20.7812C29.2646 20.7811 28.5078 20.7811 27.8549 20.8845C24.2668 21.4528 21.4528 24.2668 20.8845 27.8549C20.7811 28.5078 20.7811 29.2646 20.7812 30.5071L20.7812 30.6094C19.8101 30.625 18.7235 30.625 17.5 30.625C12.0316 30.625 9.29746 30.625 7.38073 29.2324C6.76171 28.7827 6.21733 28.2383 5.76758 27.6193C4.375 25.7025 4.375 22.9684 4.375 17.5ZM10.5729 11.6667C10.5729 12.2707 11.0626 12.7604 11.6667 12.7604L23.3333 12.7604C23.9374 12.7604 24.4271 12.2707 24.4271 11.6667C24.4271 11.0626 23.9374 10.5729 23.3333 10.5729L11.6667 10.5729C11.0626 10.5729 10.5729 11.0626 10.5729 11.6667ZM18.9583 18.5938H23.3333C23.9374 18.5938 24.4271 18.1041 24.4271 17.5C24.4271 16.8959 23.9374 16.4062 23.3333 16.4063H18.9583C18.3543 16.4063 17.8646 16.8959 17.8646 17.5C17.8646 18.1041 18.3543 18.5938 18.9583 18.5938Z" fill="url(#paint0_linear_56_744)"/>
<path d="M28.1971 23.0451C28.6468 22.9738 29.2021 22.9689 30.5297 22.9688C30.392 25.0682 30.0554 26.4865 29.2324 27.6193C28.7827 28.2383 28.2383 28.7827 27.6193 29.2324C26.4865 30.0554 25.0682 30.392 22.9688 30.5297C22.9689 29.2021 22.9738 28.6468 23.0451 28.1971C23.4651 25.5451 25.5451 23.4651 28.1971 23.0451Z" fill="url(#paint1_linear_56_744)"/>
<defs>
<linearGradient id="paint0_linear_56_744" x1="7.01705" y1="8.21023" x2="30.625" y2="30.625" gradientUnits="userSpaceOnUse">
<stop stop-color="#FFADAF"/>
<stop offset="1" stop-color="#D5BAFF"/>
</linearGradient>
<linearGradient id="paint1_linear_56_744" x1="7.01705" y1="8.21023" x2="30.625" y2="30.625" gradientUnits="userSpaceOnUse">
<stop stop-color="#FFADAF"/>
<stop offset="1" stop-color="#D5BAFF"/>
</linearGradient>
</defs>
</svg>
