<svg width="35" height="35" viewBox="0 0 35 35" fill="none" xmlns="http://www.w3.org/2000/svg">
<path d="M7.38073 7.22592C8.30476 6.55457 9.41876 6.20688 10.9375 6.0268V7.29167C10.9375 8.49979 11.9169 9.47917 13.125 9.47917C14.3331 9.47917 15.3125 8.49979 15.3125 7.29167V5.83743C15.9893 5.83333 16.7166 5.83333 17.5 5.83333C18.2834 5.83333 19.0107 5.83333 19.6875 5.83743V7.29167C19.6875 8.49979 20.6669 9.47917 21.875 9.47917C23.0831 9.47917 24.0625 8.49979 24.0625 7.29167V6.0268C25.5812 6.20688 26.6952 6.55458 27.6193 7.22592C28.2383 7.67567 28.7827 8.22004 29.2324 8.83907C30.0554 9.97184 30.392 11.3901 30.5297 13.4896H4.47028C4.60796 11.3901 4.94458 9.97184 5.76758 8.83907C6.21733 8.22004 6.76171 7.67567 7.38073 7.22592Z" fill="url(#paint0_linear_56_741)"/>
<path fill-rule="evenodd" clip-rule="evenodd" d="M4.3906 15.6768C4.375 16.648 4.375 17.7347 4.375 18.9583C4.375 24.4267 4.375 27.1609 5.76758 29.0776C6.21733 29.6966 6.76171 30.241 7.38073 30.6907C9.29746 32.0833 12.0316 32.0833 17.5 32.0833C18.7235 32.0833 19.8101 32.0833 20.7812 32.0677L20.7812 31.9655C20.7811 30.7229 20.7811 29.9661 20.8845 29.3132C21.4528 25.7252 24.2668 22.9111 27.8549 22.3428C28.5078 22.2394 29.2646 22.2395 30.5071 22.2396L30.6094 22.2396C30.625 21.2684 30.625 20.1818 30.625 18.9583C30.625 17.7347 30.625 16.648 30.6094 15.6768L30.5826 15.6771H4.41701L4.3906 15.6768ZM13.125 19.3229C12.5209 19.3229 12.0313 19.8126 12.0313 20.4167C12.0313 21.0207 12.5209 21.5104 13.125 21.5104H21.875C22.4791 21.5104 22.9688 21.0207 22.9688 20.4167C22.9688 19.8126 22.4791 19.3229 21.875 19.3229H13.125Z" fill="url(#paint1_linear_56_741)"/>
<path d="M27.6193 30.6907C26.4865 31.5138 25.0682 31.8504 22.9688 31.988C22.9689 30.6605 22.9738 30.1052 23.0451 29.6554C23.4651 27.0034 25.5451 24.9234 28.1971 24.5034C28.6468 24.4322 29.2021 24.4273 30.5297 24.4271C30.392 26.5265 30.0554 27.9448 29.2324 29.0776C28.7827 29.6966 28.2383 30.241 27.6193 30.6907Z" fill="url(#paint2_linear_56_741)"/>
<path d="M14.2188 2.91667C14.2188 2.31261 13.7291 1.82292 13.125 1.82292C12.5209 1.82292 12.0313 2.31261 12.0313 2.91667V7.29167C12.0313 7.89573 12.5209 8.38542 13.125 8.38542C13.7291 8.38542 14.2188 7.89573 14.2188 7.29167V2.91667Z" fill="url(#paint3_linear_56_741)"/>
<path d="M22.9688 2.91667C22.9688 2.31261 22.4791 1.82292 21.875 1.82292C21.2709 1.82292 20.7813 2.31261 20.7813 2.91667V7.29167C20.7813 7.89573 21.2709 8.38542 21.875 8.38542C22.4791 8.38542 22.9688 7.89573 22.9688 7.29167V2.91667Z" fill="url(#paint4_linear_56_741)"/>
<defs>
<linearGradient id="paint0_linear_56_741" x1="7.01705" y1="6.24408" x2="33.7633" y2="28.273" gradientUnits="userSpaceOnUse">
<stop stop-color="#FFADAF"/>
<stop offset="1" stop-color="#D5BAFF"/>
</linearGradient>
<linearGradient id="paint1_linear_56_741" x1="7.01705" y1="6.24408" x2="33.7633" y2="28.273" gradientUnits="userSpaceOnUse">
<stop stop-color="#FFADAF"/>
<stop offset="1" stop-color="#D5BAFF"/>
</linearGradient>
<linearGradient id="paint2_linear_56_741" x1="7.01705" y1="6.24408" x2="33.7633" y2="28.273" gradientUnits="userSpaceOnUse">
<stop stop-color="#FFADAF"/>
<stop offset="1" stop-color="#D5BAFF"/>
</linearGradient>
<linearGradient id="paint3_linear_56_741" x1="7.01705" y1="6.24408" x2="33.7633" y2="28.273" gradientUnits="userSpaceOnUse">
<stop stop-color="#FFADAF"/>
<stop offset="1" stop-color="#D5BAFF"/>
</linearGradient>
<linearGradient id="paint4_linear_56_741" x1="7.01705" y1="6.24408" x2="33.7633" y2="28.273" gradientUnits="userSpaceOnUse">
<stop stop-color="#FFADAF"/>
<stop offset="1" stop-color="#D5BAFF"/>
</linearGradient>
</defs>
</svg>
