<svg width="27" height="32" viewBox="0 0 27 32" fill="none" xmlns="http://www.w3.org/2000/svg">
<path d="M3.38073 6.22592C4.30476 5.55457 5.41876 5.20688 6.9375 5.0268V6.29167C6.9375 7.49979 7.91688 8.47917 9.125 8.47917C10.3331 8.47917 11.3125 7.49979 11.3125 6.29167V4.83743C11.9893 4.83333 12.7166 4.83333 13.5 4.83333C14.2834 4.83333 15.0107 4.83333 15.6875 4.83743V6.29167C15.6875 7.49979 16.6669 8.47917 17.875 8.47917C19.0831 8.47917 20.0625 7.49979 20.0625 6.29167V5.0268C21.5812 5.20688 22.6952 5.55458 23.6193 6.22592C24.2383 6.67567 24.7827 7.22004 25.2324 7.83907C26.0554 8.97184 26.392 10.3901 26.5297 12.4896H0.470282C0.60796 10.3901 0.944575 8.97184 1.76758 7.83907C2.21733 7.22004 2.76171 6.67567 3.38073 6.22592Z" fill="#CFCFD2"/>
<path fill-rule="evenodd" clip-rule="evenodd" d="M0.390601 14.6768C0.375 15.648 0.375 16.7347 0.375 17.9583C0.375 23.4267 0.375 26.1609 1.76758 28.0776C2.21733 28.6966 2.76171 29.241 3.38073 29.6907C5.29746 31.0833 8.03164 31.0833 13.5 31.0833C14.7235 31.0833 15.8101 31.0833 16.7812 31.0677L16.7812 30.9655C16.7811 29.7229 16.7811 28.9661 16.8845 28.3132C17.4528 24.7252 20.2668 21.9111 23.8549 21.3428C24.5078 21.2394 25.2646 21.2395 26.5071 21.2396L26.6094 21.2396C26.625 20.2684 26.625 19.1818 26.625 17.9583C26.625 16.7347 26.625 15.648 26.6094 14.6768L26.5826 14.6771H0.417013L0.390601 14.6768ZM9.125 18.3229C8.52094 18.3229 8.03125 18.8126 8.03125 19.4167C8.03125 20.0207 8.52094 20.5104 9.125 20.5104H17.875C18.4791 20.5104 18.9688 20.0207 18.9688 19.4167C18.9688 18.8126 18.4791 18.3229 17.875 18.3229H9.125Z" fill="#CFCFD2"/>
<path d="M23.6193 29.6907C22.4865 30.5138 21.0682 30.8504 18.9688 30.988C18.9689 29.6605 18.9738 29.1052 19.0451 28.6554C19.4651 26.0034 21.5451 23.9234 24.1971 23.5034C24.6468 23.4322 25.2021 23.4273 26.5297 23.4271C26.392 25.5265 26.0554 26.9448 25.2324 28.0776C24.7827 28.6966 24.2383 29.241 23.6193 29.6907Z" fill="#CFCFD2"/>
<path d="M10.2188 1.91667C10.2188 1.31261 9.72906 0.822918 9.125 0.822918C8.52094 0.822918 8.03125 1.31261 8.03125 1.91667V6.29167C8.03125 6.89573 8.52094 7.38542 9.125 7.38542C9.72906 7.38542 10.2188 6.89573 10.2188 6.29167V1.91667Z" fill="#CFCFD2"/>
<path d="M18.9688 1.91667C18.9688 1.31261 18.4791 0.822918 17.875 0.822918C17.2709 0.822918 16.7813 1.31261 16.7813 1.91667V6.29167C16.7813 6.89573 17.2709 7.38542 17.875 7.38542C18.4791 7.38542 18.9688 6.89573 18.9688 6.29167V1.91667Z" fill="#CFCFD2"/>
</svg>
