<svg width="35" height="35" viewBox="0 0 35 35" fill="none" xmlns="http://www.w3.org/2000/svg">
<path d="M6.04006 8.84496C7.13249 8.75 8.51412 8.75 10.3704 8.75H12.963C16.5929 8.75 18.4079 8.75 19.7944 9.46011C21.014 10.0847 22.0055 11.0814 22.6269 12.3073C23.3333 13.701 23.3333 15.5254 23.3333 19.1742V22.6908C23.3333 23.0552 23.3333 23.2373 23.3261 23.3913C23.2127 25.7977 21.8073 27.8591 19.7902 28.8915L21.7897 30.3178C23.0949 31.2488 24.81 29.9043 24.2143 28.4171C23.7923 27.3637 24.5693 26.2177 25.7054 26.2177H26.583C29.6207 26.2177 32.0833 23.7585 32.0833 20.725V14.5672C32.0833 10.4891 32.0833 8.4501 31.2886 6.89248C30.5895 5.52237 29.474 4.40843 28.102 3.71032C26.5422 2.91667 24.5004 2.91667 20.4167 2.91667H17.5C13.4163 2.91667 11.3744 2.91667 9.81465 3.71032C8.44263 4.40843 7.32715 5.52237 6.62807 6.89248C6.34066 7.45579 6.15719 8.08205 6.04006 8.84496Z" fill="#CFCFD2"/>
<path fill-rule="evenodd" clip-rule="evenodd" d="M21.2569 13.3471C21.875 14.5768 21.875 16.1866 21.875 19.4061V22.509C21.875 22.8305 21.875 22.9913 21.8687 23.1271C21.7304 26.0883 19.3932 28.4573 16.4719 28.5975C16.3379 28.6039 16.161 28.6039 15.8071 28.6039L15.7163 28.604C14.5591 28.6115 13.4319 28.9777 12.4859 29.6534L12.4257 29.6968L9.46448 31.8408C8.44933 32.5758 7.11537 31.5143 7.57868 30.3403C7.90688 29.5086 7.30261 28.6039 6.41892 28.6039H5.73637C3.37367 28.6039 1.45833 26.6624 1.45833 24.2675V19.4061C1.45833 16.1866 1.45833 14.5768 2.07647 13.3471C2.62019 12.2655 3.48779 11.386 4.55491 10.8349C5.76807 10.2083 7.35618 10.2083 10.5324 10.2083H12.8009C15.9771 10.2083 17.5653 10.2083 18.7784 10.8349C19.8455 11.386 20.7131 12.2655 21.2569 13.3471ZM7.29167 21.875C8.09708 21.875 8.75 21.2221 8.75 20.4167C8.75 19.6113 8.09708 18.9583 7.29167 18.9583C6.48625 18.9583 5.83333 19.6113 5.83333 20.4167C5.83333 21.2221 6.48625 21.875 7.29167 21.875ZM13.125 20.4167C13.125 21.2221 12.4721 21.875 11.6667 21.875C10.8612 21.875 10.2083 21.2221 10.2083 20.4167C10.2083 19.6113 10.8612 18.9583 11.6667 18.9583C12.4721 18.9583 13.125 19.6113 13.125 20.4167ZM16.0417 21.875C16.8471 21.875 17.5 21.2221 17.5 20.4167C17.5 19.6113 16.8471 18.9583 16.0417 18.9583C15.2362 18.9583 14.5833 19.6113 14.5833 20.4167C14.5833 21.2221 15.2362 21.875 16.0417 21.875Z" fill="#CFCFD2"/>
</svg>
