<svg width="30" height="30" viewBox="0 0 30 30" fill="none" xmlns="http://www.w3.org/2000/svg">
<path d="M6.32634 25.0564L6.76718 24.4496L6.32634 25.0564ZM4.94364 23.6737L5.55041 23.2328L4.94364 23.6737ZM25.0564 23.6737L24.4496 23.2328L25.0564 23.6737ZM23.6737 25.0564L23.2328 24.4496L23.6737 25.0564ZM23.6737 4.94364L23.2328 5.55041L23.6737 4.94364ZM25.0564 6.32634L24.4496 6.76718L25.0564 6.32634ZM6.32634 4.94364L6.76718 5.55041L6.32634 4.94364ZM4.94364 6.32634L5.55041 6.76718L4.94364 6.32634ZM11.25 14.25C10.8358 14.25 10.5 14.5858 10.5 15C10.5 15.4142 10.8358 15.75 11.25 15.75V14.25ZM18.75 15.75C19.1642 15.75 19.5 15.4142 19.5 15C19.5 14.5858 19.1642 14.25 18.75 14.25V15.75ZM14.25 18.75C14.25 19.1642 14.5858 19.5 15 19.5C15.4142 19.5 15.75 19.1642 15.75 18.75H14.25ZM15.75 11.25C15.75 10.8358 15.4142 10.5 15 10.5C14.5858 10.5 14.25 10.8358 14.25 11.25H15.75ZM15 25.5C12.6397 25.5 10.9297 25.499 9.60236 25.3552C8.28902 25.2129 7.43948 24.938 6.76718 24.4496L5.8855 25.6631C6.85612 26.3683 7.99982 26.6903 9.44079 26.8464C10.8677 27.001 12.6731 27 15 27V25.5ZM3 15C3 17.3269 2.99897 19.1323 3.15357 20.5592C3.30969 22.0002 3.63169 23.1439 4.33688 24.1145L5.55041 23.2328C5.06196 22.5605 4.78713 21.711 4.64484 20.3976C4.50103 19.0703 4.5 17.3603 4.5 15H3ZM6.76718 24.4496C6.30026 24.1104 5.88964 23.6997 5.55041 23.2328L4.33688 24.1145C4.76864 24.7088 5.29124 25.2314 5.8855 25.6631L6.76718 24.4496ZM25.5 15C25.5 17.3603 25.499 19.0703 25.3552 20.3976C25.2129 21.711 24.938 22.5605 24.4496 23.2328L25.6631 24.1145C26.3683 23.1439 26.6903 22.0002 26.8464 20.5592C27.001 19.1323 27 17.3269 27 15H25.5ZM15 27C17.3269 27 19.1323 27.001 20.5592 26.8464C22.0002 26.6903 23.1439 26.3683 24.1145 25.6631L23.2328 24.4496C22.5605 24.938 21.711 25.2129 20.3976 25.3552C19.0703 25.499 17.3603 25.5 15 25.5V27ZM24.4496 23.2328C24.1104 23.6997 23.6997 24.1104 23.2328 24.4496L24.1145 25.6631C24.7088 25.2314 25.2314 24.7088 25.6631 24.1145L24.4496 23.2328ZM15 4.5C17.3603 4.5 19.0703 4.50103 20.3976 4.64484C21.711 4.78713 22.5605 5.06196 23.2328 5.55041L24.1145 4.33688C23.1439 3.63169 22.0002 3.30969 20.5592 3.15357C19.1323 2.99897 17.3269 3 15 3V4.5ZM27 15C27 12.6731 27.001 10.8677 26.8464 9.44079C26.6903 7.99982 26.3683 6.85612 25.6631 5.8855L24.4496 6.76718C24.938 7.43948 25.2129 8.28902 25.3552 9.60236C25.499 10.9297 25.5 12.6397 25.5 15H27ZM23.2328 5.55041C23.6997 5.88964 24.1104 6.30026 24.4496 6.76718L25.6631 5.8855C25.2314 5.29124 24.7088 4.76864 24.1145 4.33688L23.2328 5.55041ZM15 3C12.6731 3 10.8677 2.99897 9.44079 3.15357C7.99982 3.30969 6.85612 3.63169 5.8855 4.33688L6.76718 5.55041C7.43948 5.06196 8.28902 4.78713 9.60236 4.64484C10.9297 4.50103 12.6397 4.5 15 4.5V3ZM4.5 15C4.5 12.6397 4.50103 10.9297 4.64484 9.60236C4.78713 8.28902 5.06196 7.43948 5.55041 6.76718L4.33688 5.8855C3.63169 6.85612 3.30969 7.99982 3.15357 9.44079C2.99897 10.8677 3 12.6731 3 15H4.5ZM5.8855 4.33688C5.29124 4.76864 4.76864 5.29124 4.33688 5.8855L5.55041 6.76718C5.88964 6.30026 6.30026 5.88964 6.76718 5.55041L5.8855 4.33688ZM11.25 15.75H18.75V14.25H11.25V15.75ZM15.75 18.75V11.25H14.25V18.75H15.75Z" fill="white"/>
</svg>
