<svg width="30" height="30" viewBox="0 0 30 30" fill="none" xmlns="http://www.w3.org/2000/svg">
<path d="M16.4026 8.27164C16.7703 7.90716 17.3639 7.90981 17.7284 8.27755C18.0928 8.6453 18.0902 9.23888 17.7224 9.60336L15.5187 11.7875C14.6244 12.6739 14.0109 13.284 13.5957 13.8009C13.1925 14.303 13.0542 14.6255 13.0173 14.9144C12.9942 15.0957 12.9942 15.2793 13.0173 15.4606C13.0542 15.7495 13.1925 16.072 13.5957 16.5741C14.0109 17.091 14.6244 17.7011 15.5187 18.5875L17.7224 20.7716C18.0902 21.1361 18.0928 21.7297 17.7284 22.0974C17.3639 22.4652 16.7703 22.4678 16.4026 22.1034L14.1591 19.8799C13.3142 19.0425 12.6236 18.358 12.1338 17.7482C11.6245 17.114 11.2559 16.4703 11.1574 15.6977C11.1142 15.3589 11.1142 15.0161 11.1574 14.6773C11.2559 13.9047 11.6245 13.261 12.1338 12.6268C12.6236 12.017 13.3142 11.3326 14.1591 10.4951L16.4026 8.27164Z" fill="white"/>
</svg>
