<svg width="30" height="30" viewBox="0 0 30 30" fill="none" xmlns="http://www.w3.org/2000/svg">
<path d="M6.32634 26.3064L6.76718 25.6996L6.32634 26.3064ZM4.94364 24.9237L5.55041 24.4828L4.94364 24.9237ZM25.0564 24.9237L24.4496 24.4828L25.0564 24.9237ZM23.6737 26.3064L24.1145 26.9131L23.6737 26.3064ZM23.6737 6.19364L24.1145 5.58688L23.6737 6.19364ZM25.0564 7.57634L24.4496 8.01718L24.4496 8.01718L25.0564 7.57634ZM6.32634 6.19364L6.76718 6.80041L6.76718 6.80041L6.32634 6.19364ZM4.94364 7.57634L5.55041 8.01718L5.55041 8.01718L4.94364 7.57634ZM24.0223 20.0769L23.905 19.3362L23.905 19.3362L24.0223 20.0769ZM18.8269 25.2723L18.0862 25.155L18.0862 25.155L18.8269 25.2723ZM11.25 16.75C10.8358 16.75 10.5 17.0858 10.5 17.5C10.5 17.9142 10.8358 18.25 11.25 18.25V16.75ZM18.75 18.25C19.1642 18.25 19.5 17.9142 19.5 17.5C19.5 17.0858 19.1642 16.75 18.75 16.75V18.25ZM18 6.25C18 6.66421 18.3358 7 18.75 7C19.1642 7 19.5 6.66421 19.5 6.25H18ZM19.5 2.5C19.5 2.08579 19.1642 1.75 18.75 1.75C18.3358 1.75 18 2.08579 18 2.5H19.5ZM10.5 6.25C10.5 6.66421 10.8358 7 11.25 7C11.6642 7 12 6.66421 12 6.25H10.5ZM12 2.5C12 2.08579 11.6642 1.75 11.25 1.75C10.8358 1.75 10.5 2.08579 10.5 2.5H12ZM26.2138 20L26.9634 20.0257L26.2138 20ZM3.78616 12.5L3.0366 12.4743L3.78616 12.5ZM26.2138 12.5L26.9634 12.4743L26.2138 12.5ZM15 26.75C12.6397 26.75 10.9297 26.749 9.60236 26.6052C8.28902 26.4629 7.43948 26.188 6.76718 25.6996L5.8855 26.9131C6.85612 27.6183 7.99982 27.9403 9.44079 28.0964C10.8677 28.251 12.6731 28.25 15 28.25V26.75ZM3 16.25C3 18.5769 2.99897 20.3823 3.15357 21.8092C3.30969 23.2502 3.63169 24.3939 4.33688 25.3645L5.55041 24.4828C5.06196 23.8105 4.78713 22.961 4.64484 21.6476C4.50103 20.3203 4.5 18.6103 4.5 16.25H3ZM6.76718 25.6996C6.30026 25.3604 5.88964 24.9497 5.55041 24.4828L4.33688 25.3645C4.76864 25.9588 5.29124 26.4814 5.8855 26.9131L6.76718 25.6996ZM24.4496 24.4828C24.1104 24.9497 23.6997 25.3604 23.2328 25.6996L24.1145 26.9131C24.7088 26.4814 25.2314 25.9588 25.6631 25.3645L24.4496 24.4828ZM23.2328 6.80041C23.6997 7.13965 24.1104 7.55026 24.4496 8.01718L25.6631 7.1355C25.2314 6.54124 24.7088 6.01864 24.1145 5.58688L23.2328 6.80041ZM5.8855 5.58688C5.29124 6.01864 4.76864 6.54124 4.33688 7.1355L5.55041 8.01718C5.88964 7.55026 6.30026 7.13964 6.76718 6.80041L5.8855 5.58688ZM23.905 19.3362C20.9097 19.8106 18.5606 22.1597 18.0862 25.155L19.5677 25.3896C19.9405 23.0362 21.7862 21.1905 24.1396 20.8177L23.905 19.3362ZM11.25 18.25H18.75V16.75H11.25V18.25ZM26.2138 19.25C25.1041 19.25 24.4585 19.2485 23.905 19.3362L24.1396 20.8177C24.5476 20.7531 25.0492 20.75 26.2138 20.75L26.2138 19.25ZM25.5 16.25C25.5 17.7153 25.4999 18.9345 25.4643 19.9743L26.9634 20.0257C27.0001 18.9547 27 17.707 27 16.25H25.5ZM25.4643 19.9743C25.3848 22.2953 25.1265 23.5511 24.4496 24.4828L25.6631 25.3645C26.6293 24.0347 26.8832 22.3652 26.9634 20.0257L25.4643 19.9743ZM19.5 27.4638C19.5 26.2992 19.5031 25.7976 19.5677 25.3896L18.0862 25.155C17.9985 25.7085 18 26.3541 18 27.4638L19.5 27.4638ZM15 28.25C16.457 28.25 17.7047 28.2501 18.7757 28.2134L18.7243 26.7143C17.6845 26.7499 16.4653 26.75 15 26.75V28.25ZM18.7757 28.2134C21.1152 28.1332 22.7847 27.8793 24.1145 26.9131L23.2328 25.6996C22.3011 26.3765 21.0453 26.6348 18.7243 26.7143L18.7757 28.2134ZM4.5 16.25C4.5 14.7847 4.50009 13.5655 4.53572 12.5257L3.0366 12.4743C2.99991 13.5453 3 14.793 3 16.25H4.5ZM4.53572 12.5257C4.61524 10.2047 4.87349 8.94888 5.55041 8.01718L4.33688 7.1355C3.37072 8.46531 3.11675 10.1348 3.0366 12.4743L4.53572 12.5257ZM3.78616 13.25H26.2138V11.75H3.78616V13.25ZM27 16.25C27 14.793 27.0001 13.5453 26.9634 12.4743L25.4643 12.5257C25.4999 13.5655 25.5 14.7847 25.5 16.25H27ZM26.9634 12.4743C26.8832 10.1348 26.6293 8.46532 25.6631 7.1355L24.4496 8.01718C25.1265 8.94888 25.3848 10.2047 25.4643 12.5257L26.9634 12.4743ZM19.5 6.25V5.03616H18V6.25H19.5ZM19.5 5.03616V2.5H18V5.03616H19.5ZM15 5.75C16.4653 5.75 17.6845 5.75009 18.7243 5.78572L18.7757 4.2866C17.7047 4.24991 16.457 4.25 15 4.25V5.75ZM18.7243 5.78572C21.0453 5.86524 22.3011 6.12349 23.2328 6.80041L24.1145 5.58688C22.7847 4.62072 21.1152 4.36675 18.7757 4.2866L18.7243 5.78572ZM12 6.25V5.03616H10.5V6.25H12ZM12 5.03616V2.5H10.5V5.03616H12ZM15 4.25C13.543 4.25 12.2953 4.24991 11.2243 4.2866L11.2757 5.78572C12.3155 5.75009 13.5347 5.75 15 5.75V4.25ZM11.2243 4.2866C8.88483 4.36675 7.21531 4.62072 5.8855 5.58688L6.76718 6.80041C7.69888 6.12349 8.95471 5.86524 11.2757 5.78572L11.2243 4.2866Z" fill="white"/>
</svg>
