<svg width="30" height="30" viewBox="0 0 30 30" fill="none" xmlns="http://www.w3.org/2000/svg">
<path d="M13.5974 8.27164C13.2297 7.90716 12.6361 7.90981 12.2716 8.27755C11.9072 8.6453 11.9098 9.23888 12.2776 9.60336L14.4813 11.7875C15.3756 12.6739 15.9891 13.284 16.4043 13.8009C16.8075 14.303 16.9458 14.6255 16.9827 14.9144C17.0058 15.0957 17.0058 15.2793 16.9827 15.4606C16.9458 15.7495 16.8075 16.072 16.4043 16.5741C15.9891 17.091 15.3756 17.7011 14.4813 18.5875L12.2776 20.7716C11.9098 21.1361 11.9072 21.7297 12.2716 22.0974C12.6361 22.4652 13.2297 22.4678 13.5974 22.1034L15.8409 19.8799C16.6858 19.0425 17.3764 18.358 17.8662 17.7482C18.3755 17.114 18.7441 16.4703 18.8426 15.6977C18.8858 15.3589 18.8858 15.0161 18.8426 14.6773C18.7441 13.9047 18.3755 13.261 17.8662 12.6268C17.3764 12.017 16.6858 11.3326 15.8409 10.4951L13.5974 8.27164Z" fill="white"/>
</svg>
